<?xml version="1.0" standalone="no"?>
<!DOCTYPE svg PUBLIC "-//W3C//DTD SVG 20010904//EN"
 "http://www.w3.org/TR/2001/REC-SVG-20010904/DTD/svg10.dtd">
<svg version="1.0" xmlns="http://www.w3.org/2000/svg"
 width="512.000000pt" height="512.000000pt" viewBox="0 0 512.000000 512.000000"
 preserveAspectRatio="xMidYMid meet">

<g transform="translate(0.000000,512.000000) scale(0.100000,-0.100000)"
fill="#000000" stroke="none">
<path d="M732 5103 c-23 -8 -62 -35 -86 -59 -83 -83 -76 153 -74 -2524 l3
-2385 24 -39 c34 -54 74 -76 142 -76 48 0 73 9 189 65 124 60 139 65 201 65
61 0 76 -5 189 -61 243 -119 327 -119 563 -3 124 61 133 64 203 64 71 0 79 -2
189 -60 232 -121 338 -121 570 0 110 58 118 60 189 60 70 0 79 -3 203 -64 236
-116 320 -116 563 3 113 56 128 61 189 61 62 0 77 -5 201 -65 115 -56 142 -65
188 -65 66 0 111 24 144 78 l23 37 3 2385 c2 2677 9 2441 -74 2524 -82 83 82
76 -1918 75 -1560 0 -1786 -2 -1824 -16z m3623 -178 l25 -24 0 -2361 0 -2360
-112 56 c-132 67 -189 84 -278 84 -89 0 -144 -17 -290 -89 -123 -61 -126 -63
-196 -59 -64 3 -83 9 -192 65 -139 71 -205 88 -316 80 -72 -5 -91 -11 -219
-74 -136 -66 -141 -68 -217 -68 -76 0 -81 2 -217 68 -128 63 -147 69 -219 74
-110 8 -169 -7 -312 -79 -109 -55 -131 -63 -193 -66 -69 -4 -71 -4 -219 68
-140 68 -154 72 -233 77 -111 7 -166 -7 -310 -78 l-117 -59 0 2360 0 2361 25
24 24 25 1771 0 1771 0 24 -25z"/>
<path d="M1125 4455 c-47 -46 -25 -125 37 -140 13 -3 445 -4 961 -3 l939 3 19
24 c29 36 25 94 -7 120 -27 21 -31 21 -976 21 l-949 0 -24 -25z"/>
<path d="M3544 4468 c-24 -11 -44 -48 -44 -79 0 -11 13 -34 29 -50 l29 -29
207 0 207 0 29 29 c37 38 38 79 3 115 l-27 26 -206 -1 c-120 0 -215 -5 -227
-11z"/>
<path d="M1125 3985 c-25 -24 -32 -65 -19 -100 17 -44 29 -45 668 -45 l604 0
31 26 c40 33 43 83 6 119 l-24 25 -621 0 -621 0 -24 -25z"/>
<path d="M3532 3990 c-30 -28 -38 -68 -21 -99 27 -48 48 -52 267 -49 l204 3
24 28 c31 37 31 81 -1 112 -24 25 -24 25 -238 25 -200 0 -215 -1 -235 -20z"/>
<path d="M1125 3515 c-44 -43 -29 -112 29 -135 39 -15 1852 -14 1895 1 37 13
51 35 51 83 0 25 -7 40 -26 55 -27 21 -31 21 -976 21 l-949 0 -24 -25z"/>
<path d="M3530 3520 c-28 -28 -36 -69 -19 -99 27 -48 48 -52 267 -49 l204 3
24 28 c31 37 31 81 -1 112 -24 25 -24 25 -240 25 -201 0 -216 -1 -235 -20z"/>
<path d="M1126 3049 c-36 -28 -36 -86 0 -120 l26 -24 620 0 620 0 24 28 c31
37 31 81 -1 112 l-24 25 -619 0 c-611 0 -620 0 -646 -21z"/>
<path d="M3525 3045 c-32 -31 -32 -75 -1 -112 l24 -28 217 0 217 0 24 28 c31
37 31 81 -1 112 -24 25 -24 25 -240 25 -216 0 -216 0 -240 -25z"/>
<path d="M1122 2577 c-30 -32 -29 -87 1 -115 23 -22 27 -22 389 -22 l367 0 20
26 c28 36 27 79 -4 109 l-24 25 -364 0 -364 0 -21 -23z"/>
<path d="M3525 2575 c-16 -15 -25 -36 -25 -55 0 -19 9 -40 25 -55 l24 -25 220
0 220 0 20 26 c28 36 27 79 -4 109 -24 25 -24 25 -240 25 -216 0 -216 0 -240
-25z"/>
<path d="M1122 2107 c-30 -32 -29 -87 1 -115 l23 -22 626 0 627 0 20 26 c28
36 27 79 -4 109 l-24 25 -624 0 -624 0 -21 -23z"/>
<path d="M3525 2105 c-16 -15 -25 -36 -25 -55 0 -19 9 -40 25 -55 24 -25 24
-25 240 -25 216 0 216 0 240 25 16 15 25 36 25 55 0 19 -9 40 -25 55 -24 25
-24 25 -240 25 -216 0 -216 0 -240 -25z"/>
<path d="M3753 1539 c-11 -4 -23 -18 -26 -31 -5 -19 -17 -27 -55 -37 -58 -14
-119 -62 -138 -107 -19 -45 -18 -118 3 -161 20 -43 78 -86 144 -108 l49 -17 0
-74 c0 -87 -2 -88 -90 -44 -33 17 -70 30 -83 30 -35 0 -59 -32 -55 -71 4 -43
46 -72 145 -102 71 -21 73 -23 73 -54 0 -34 29 -73 53 -73 27 0 48 27 54 66 5
39 7 41 55 54 54 13 110 56 134 101 18 35 18 120 0 162 -18 45 -65 82 -136
108 l-60 22 0 74 c0 82 1 83 72 47 57 -29 108 -5 108 52 0 40 -32 65 -117 90
-41 12 -53 21 -61 43 -11 31 -36 42 -69 30z m-23 -244 c0 -36 -4 -65 -9 -65
-19 0 -61 43 -61 63 0 27 9 40 35 55 33 19 35 15 35 -53z m137 -267 c38 -36
26 -88 -24 -103 -22 -6 -23 -4 -23 59 0 72 8 80 47 44z"/>
<path d="M1029 1430 l-30 -29 3 -295 c3 -292 3 -296 26 -318 l23 -23 930 0
931 0 24 28 24 28 0 290 0 291 -29 29 -29 29 -922 0 -922 0 -29 -30z m1761
-320 l0 -180 -810 0 -810 0 0 180 0 180 810 0 810 0 0 -180z"/>
</g>
</svg>
